<svg width="80" height="81" viewBox="0 0 80 81" fill="none" xmlns="http://www.w3.org/2000/svg">
<path d="M30.8333 38.1666V52.8333C30.8333 53.3195 30.6402 53.7858 30.2964 54.1296C29.9525 54.4734 29.4862 54.6666 29 54.6666H25.3333C24.8471 54.6666 24.3808 54.4734 24.037 54.1296C23.6932 53.7858 23.5 53.3195 23.5 52.8333V39.9999C23.5 39.5137 23.6932 39.0474 24.037 38.7036C24.3808 38.3597 24.8471 38.1666 25.3333 38.1666H30.8333ZM30.8333 38.1666C32.7783 38.1666 34.6435 37.394 36.0188 36.0187C37.3941 34.6434 38.1667 32.7782 38.1667 30.8333V28.9999C38.1667 28.0275 38.553 27.0948 39.2406 26.4072C39.9282 25.7196 40.8609 25.3333 41.8333 25.3333C42.8058 25.3333 43.7384 25.7196 44.4261 26.4072C45.1137 27.0948 45.5 28.0275 45.5 28.9999V38.1666H51C51.9725 38.1666 52.9051 38.5529 53.5927 39.2405C54.2804 39.9282 54.6667 40.8608 54.6667 41.8333L52.8333 50.9999C52.5697 52.1246 52.0695 53.0904 51.4082 53.7517C50.7469 54.413 49.9602 54.7341 49.1667 54.6666H36.3333C34.8746 54.6666 33.4757 54.0871 32.4442 53.0557C31.4128 52.0242 30.8333 50.6253 30.8333 49.1666" stroke="#1A202C" stroke-width="2" stroke-linecap="round" stroke-linejoin="round"/>
<circle cx="40" cy="40.0044" r="39.5" stroke="#1A202C"/>
</svg>
