<svg width="80" height="80" viewBox="0 0 80 80" fill="none" xmlns="http://www.w3.org/2000/svg">
<path d="M49.1666 32.6666V27.1666C49.1666 26.6804 48.9734 26.214 48.6296 25.8702C48.2858 25.5264 47.8195 25.3333 47.3333 25.3333H28.9999C28.0275 25.3333 27.0948 25.7196 26.4072 26.4072C25.7196 27.0948 25.3333 28.0275 25.3333 28.9999M25.3333 28.9999C25.3333 29.9724 25.7196 30.905 26.4072 31.5926C27.0948 32.2803 28.0275 32.6666 28.9999 32.6666H50.9999C51.4862 32.6666 51.9525 32.8597 52.2963 33.2036C52.6401 33.5474 52.8333 34.0137 52.8333 34.4999V39.9999M25.3333 28.9999V50.9999C25.3333 51.9724 25.7196 52.905 26.4072 53.5926C27.0948 54.2803 28.0275 54.6666 28.9999 54.6666H50.9999C51.4862 54.6666 51.9525 54.4734 52.2963 54.1296C52.6401 53.7858 52.8333 53.3195 52.8333 52.8332V47.3333" stroke="#1A202C" stroke-width="2" stroke-linecap="round" stroke-linejoin="round"/>
<path d="M54.6667 40V47.3333H47.3334C46.361 47.3333 45.4283 46.947 44.7407 46.2594C44.0531 45.5718 43.6667 44.6391 43.6667 43.6667C43.6667 42.6942 44.0531 41.7616 44.7407 41.0739C45.4283 40.3863 46.361 40 47.3334 40H54.6667Z" stroke="#1A202C" stroke-width="2" stroke-linecap="round" stroke-linejoin="round"/>
<circle cx="40" cy="40" r="39.5" stroke="#1A202C"/>
</svg>
