<svg width="20" height="20" viewBox="0 0 20 20" fill="none" xmlns="http://www.w3.org/2000/svg">
<path d="M14.4274 1L5.28224 1C2.75687 1 0.709656 3.04721 0.709656 5.57258L0.709656 14.7177C0.709656 17.2431 2.75687 19.2903 5.28224 19.2903L14.4274 19.2903C16.9528 19.2903 19 17.2431 19 14.7177L19 5.57258C19 3.04721 16.9528 1 14.4274 1Z" stroke="white" stroke-linecap="round" stroke-linejoin="round"/>
<path d="M9.85462 13.5748C11.7486 13.5748 13.2841 12.0393 13.2841 10.1453C13.2841 8.2513 11.7486 6.71589 9.85462 6.71589C7.9606 6.71589 6.42519 8.2513 6.42519 10.1453C6.42519 12.0393 7.9606 13.5748 9.85462 13.5748Z" stroke="white" stroke-linecap="round" stroke-linejoin="round"/>
<path d="M14.9988 5.00117V5.00322" stroke="#805AD5" stroke-linecap="round" stroke-linejoin="round"/>
</svg>
