<svg width="23" height="19" viewBox="0 0 23 19" fill="none" xmlns="http://www.w3.org/2000/svg">
<path d="M21.6129 0.794089C20.5629 1.31175 19.5339 1.52199 18.4629 1.83998C17.2859 0.503564 15.5408 0.429612 13.8639 1.06137C12.1871 1.69313 11.0888 3.23767 11.1129 5.00935V6.0658C7.70566 6.15349 4.67116 4.59205 2.71291 1.83998C2.71291 1.83998 -1.67819 9.69261 6.91291 13.461C4.94731 14.7784 2.98696 15.6669 0.612915 15.5739C4.08631 17.4787 7.87157 18.1337 11.1486 17.1765C14.9076 16.0778 17.9967 13.2434 19.1822 8.99746C19.5358 7.70613 19.7114 6.37202 19.704 5.03259C19.7019 4.76953 21.2895 2.10409 21.6129 0.793033V0.794089Z" stroke="white" stroke-linecap="round" stroke-linejoin="round"/>
</svg>
